<svg xmlns="http://www.w3.org/2000/svg" width="15" height="15" viewBox="0 0 1280 1278" version="1.1"><path d="M 721.290 1.908 C 719.525 3.016, 716.989 5.627, 715.655 7.711 C 714.321 9.795, 700.103 36.025, 684.059 66 C 663.033 105.286, 653.844 121.505, 651.146 124.099 L 647.402 127.697 625.951 128.558 C 614.153 129.031, 602.614 129.347, 600.309 129.260 C 595.766 129.088, 589.467 126.319, 586.878 123.356 C 585.985 122.335, 569.176 98.325, 549.523 70 C 529.871 41.675, 512.601 17.207, 511.146 15.627 C 508.049 12.264, 503.241 10, 499.195 10 C 497.618 10, 482.641 14.655, 465.913 20.344 C 449.186 26.033, 422.900 34.886, 407.500 40.018 C 382.492 48.351, 379.106 49.737, 375.815 52.992 C 369.862 58.877, 369.845 52.705, 376.026 131.500 C 377.147 145.800, 378.671 165.063, 379.412 174.307 C 380.976 193.831, 380.478 197.159, 375.125 202.938 C 373.131 205.090, 362.873 212.751, 352.330 219.962 C 336.678 230.666, 332.145 233.285, 327.629 234.232 C 320.957 235.632, 327.173 237.894, 251.863 206.660 C 213.341 190.683, 196.106 184, 193.429 184 C 184.946 184, 183.927 185.043, 144.535 234.030 C 124.205 259.313, 107.008 281.012, 106.321 282.250 C 104.334 285.827, 104.726 293.039, 107.122 296.969 C 108.285 298.876, 126.097 322.640, 146.705 349.776 C 167.312 376.912, 184.584 400.548, 185.086 402.301 C 187.108 409.350, 186.205 412.680, 174.910 439.837 C 168.811 454.501, 162.778 467.878, 161.503 469.562 C 156.881 475.668, 154.176 476.352, 86.617 488.508 C 38.488 497.167, 21.915 500.507, 19.417 502.051 C 12.762 506.164, 12.546 506.939, 7.037 546.500 C 3.249 573.696, 0.031 609.966, 0.013 625.648 L 0 636.797 16.750 643.002 C 25.963 646.414, 54.269 656.776, 79.652 666.027 C 105.036 675.278, 127.086 683.514, 128.652 684.329 C 132.501 686.331, 135.616 689.813, 137.314 694.014 C 138.089 695.931, 141.331 711.900, 144.517 729.500 L 150.310 761.500 148.659 767.142 C 147.015 772.757, 146.767 773.008, 98.110 818.367 C 63.640 850.501, 48.887 864.886, 48.107 867.124 C 46.296 872.317, 46.822 877.209, 49.815 883.028 C 96.873 974.502, 99.382 979.190, 102.606 981.648 C 104.431 983.041, 107.716 984.421, 109.905 984.714 C 112.835 985.107, 130.650 981.487, 177.366 971.007 L 240.845 956.765 246.487 958.540 C 251.861 960.230, 253.311 961.545, 277.105 986.288 C 291.534 1001.292, 302.698 1013.736, 303.541 1015.753 C 306.001 1021.641, 305.242 1027.387, 298.565 1053.415 C 278.913 1130.017, 274 1150.033, 274 1153.495 C 274 1155.731, 274.997 1159.025, 276.396 1161.412 C 278.601 1165.175, 282.652 1167.673, 327.335 1192.825 C 354.034 1207.854, 377.380 1220.611, 379.215 1221.174 C 381.570 1221.897, 383.867 1221.858, 387.026 1221.042 C 391.104 1219.988, 395.559 1215.774, 437.411 1173.381 C 464.365 1146.079, 484.891 1126.076, 487.122 1124.938 C 489.347 1123.803, 492.946 1123, 495.810 1123 C 498.500 1123, 515.608 1126.338, 533.829 1130.417 C 567.837 1138.031, 570.442 1138.933, 574.940 1144.651 C 576.055 1146.069, 585.996 1174.472, 597.032 1207.770 C 608.067 1241.068, 617.548 1269.156, 618.100 1270.187 C 618.652 1271.219, 620.948 1273.399, 623.202 1275.031 L 627.300 1278 645.939 1278 C 661.742 1278, 685.085 1276.629, 705.500 1274.502 C 730.107 1271.939, 740.043 1270.728, 743.205 1269.908 C 747.531 1268.786, 752.485 1264.896, 754.466 1261.066 C 755.233 1259.583, 761.758 1230.274, 768.966 1195.935 C 776.174 1161.596, 782.534 1132.326, 783.098 1130.892 C 783.663 1129.457, 785.784 1126.665, 787.813 1124.686 C 790.894 1121.679, 796.104 1119.338, 819.500 1110.447 C 834.900 1104.594, 848.779 1099.341, 850.343 1098.773 C 853.898 1097.481, 863.435 1098.396, 866.327 1100.307 C 867.522 1101.096, 890.100 1119.157, 916.500 1140.441 C 942.900 1161.726, 965.850 1179.863, 967.500 1180.746 C 972.241 1183.283, 979.241 1182.859, 983.581 1179.772 C 985.601 1178.335, 1007.216 1162.036, 1031.614 1143.553 C 1062.422 1120.215, 1076.490 1108.963, 1077.658 1106.724 C 1081.316 1099.715, 1080.918 1098.361, 1056.222 1033.678 C 1031.132 967.964, 1030.787 966.763, 1034.781 958.929 C 1035.761 957.007, 1043.745 945.642, 1052.524 933.673 C 1067.336 913.477, 1068.873 911.720, 1073.878 909.271 L 1079.272 906.632 1100.386 908.828 C 1111.999 910.036, 1129.600 911.906, 1139.500 912.984 C 1190.468 918.534, 1204.832 919.999, 1208.290 920 C 1212.917 920, 1219.132 916.974, 1221.300 913.665 C 1222.734 911.477, 1234.346 880.378, 1256.526 819.329 C 1260.747 807.711, 1263.993 797.178, 1263.984 795.129 C 1263.947 787.039, 1262.860 786.083, 1206.524 744.532 C 1174.369 720.816, 1152.665 704.143, 1151.289 702.100 C 1147.251 696.108, 1147.027 693.322, 1148.600 668.676 C 1150.185 643.856, 1151.202 639.051, 1155.768 634.791 C 1157.270 633.389, 1184.150 619.352, 1215.500 603.598 C 1246.850 587.844, 1273.231 574.394, 1274.123 573.709 C 1277.224 571.332, 1279.992 565.547, 1279.996 561.436 C 1279.998 559.201, 1277.950 547.951, 1275.444 536.436 C 1272.938 524.921, 1269.581 509.425, 1267.984 502 C 1252.967 432.172, 1253.969 435.594, 1247.186 430.932 C 1243.663 428.511, 1241.347 428.269, 1191 425.070 C 1181.375 424.459, 1166.975 423.529, 1159 423.004 C 1151.025 422.479, 1136.850 421.548, 1127.500 420.935 C 1109.452 419.752, 1104.679 418.480, 1100.139 413.648 C 1098.933 412.364, 1093.459 403.031, 1087.975 392.907 C 1078.610 375.620, 1078.003 374.147, 1078.002 368.700 C 1078.001 365.310, 1078.672 361.601, 1079.618 359.771 C 1080.509 358.050, 1095.633 332.371, 1113.229 302.708 C 1135.274 265.542, 1145.378 247.602, 1145.726 245.003 C 1146.810 236.921, 1146.313 236.314, 1099.728 188.870 C 1075.518 164.213, 1054.538 143.264, 1053.105 142.314 C 1051.456 141.222, 1048.481 140.574, 1045 140.550 C 1039.620 140.513, 1038.230 141.218, 981.528 172.756 L 923.557 205 917.476 205 C 911.634 205, 910.729 204.623, 894.447 195.400 C 875.658 184.756, 872.589 182.382, 869.891 176.404 C 867.945 172.091, 867.791 169.322, 865.021 88.500 C 863.472 43.328, 863.156 39.522, 860.654 35.848 C 856.030 29.056, 860.067 30.275, 775 9.987 C 768.125 8.347, 756.875 5.606, 750 3.896 C 733.409 -0.231, 725.565 -0.774, 721.290 1.908 M 627.500 264.673 C 534.779 267.811, 447.098 305.321, 380.122 370.500 C 335.813 413.620, 305.097 463.070, 284.463 524.500 C 279.760 538.501, 273.398 566.118, 270.986 583 C 261.366 650.328, 269.480 717.938, 294.528 779.163 C 342.916 897.438, 449.208 983.567, 574.409 1005.951 C 597.162 1010.019, 613.509 1011.363, 640.500 1011.386 C 666.957 1011.408, 678.707 1010.538, 701 1006.908 C 838.082 984.585, 951.489 888.148, 995.427 756.538 C 1015.854 695.350, 1020.074 628.124, 1007.448 565 C 986.732 461.420, 924.155 372.632, 833 317.482 C 790.536 291.790, 740.018 274.261, 688.888 267.476 C 678.386 266.083, 642.122 263.781, 637.500 264.215 C 636.400 264.318, 631.900 264.524, 627.500 264.673" stroke="none" fill="#00FF00" fill-rule="evenodd"/></svg>